TITLE ""
FILE "Step1_Track13.mp3" MP3
  TRACK 01 AUDIO
    TITLE "Step1_Track13_01"
    INDEX 01 00:00:00
  TRACK 02 AUDIO
    TITLE "Step1_Track13_02"
    INDEX 01 00:00:22
  TRACK 03 AUDIO
    TITLE "Step1_Track13_03"
    INDEX 01 00:01:72
  TRACK 04 AUDIO
    TITLE "Step1_Track13_04"
    INDEX 01 00:02:56
  TRACK 05 AUDIO
    TITLE "Step1_Track13_05"
    INDEX 01 00:03:54
  TRACK 06 AUDIO
    TITLE "Step1_Track13_06"
    INDEX 01 00:03:69
  TRACK 07 AUDIO
    TITLE "Step1_Track13_07"
    INDEX 01 00:05:25
  TRACK 08 AUDIO
    TITLE "Step1_Track13_08"
    INDEX 01 00:05:57
  TRACK 09 AUDIO
    TITLE "Step1_Track13_09"
    INDEX 01 00:06:54
  TRACK 10 AUDIO
    TITLE "Step1_Track13_10"
    INDEX 01 00:06:68
  TRACK 11 AUDIO
    TITLE "Step1_Track13_11"
    INDEX 01 00:08:18
  TRACK 12 AUDIO
    TITLE "Step1_Track13_12"
    INDEX 01 00:08:45
  TRACK 13 AUDIO
    TITLE "Step1_Track13_13"
    INDEX 01 00:09:48
  TRACK 14 AUDIO
    TITLE "Step1_Track13_14"
    INDEX 01 00:09:60
  TRACK 15 AUDIO
    TITLE "Step1_Track13_15"
    INDEX 01 00:11:47
  TRACK 16 AUDIO
    TITLE "Step1_Track13_16"
    INDEX 01 00:11:69
  TRACK 17 AUDIO
    TITLE "Step1_Track13_17"
    INDEX 01 00:12:68
  TRACK 18 AUDIO
    TITLE "Step1_Track13_18"
    INDEX 01 00:13:01
  TRACK 19 AUDIO
    TITLE "Step1_Track13_19"
    INDEX 01 00:15:14
  TRACK 20 AUDIO
    TITLE "Step1_Track13_20"
    INDEX 01 00:15:29
  TRACK 21 AUDIO
    TITLE "Step1_Track13_21"
    INDEX 01 00:16:29
  TRACK 22 AUDIO
    TITLE "Step1_Track13_22"
    INDEX 01 00:16:49
  TRACK 23 AUDIO
    TITLE "Step1_Track13_23"
    INDEX 01 00:18:26
  TRACK 24 AUDIO
    TITLE "Step1_Track13_24"
    INDEX 01 00:18:45
  TRACK 25 AUDIO
    TITLE "Step1_Track13_25"
    INDEX 01 00:19:49
  TRACK 26 AUDIO
    TITLE "Step1_Track13_26"
    INDEX 01 00:19:63
  TRACK 27 AUDIO
    TITLE "Step1_Track13_27"
    INDEX 01 00:21:58
  TRACK 28 AUDIO
    TITLE "Step1_Track13_28"
    INDEX 01 00:22:10
  TRACK 29 AUDIO
    TITLE "Step1_Track13_29"
    INDEX 01 00:23:13
  TRACK 30 AUDIO
    TITLE "Step1_Track13_30"
    INDEX 01 00:23:21
  TRACK 31 AUDIO
    TITLE "Step1_Track13_31"
    INDEX 01 00:25:20
  TRACK 32 AUDIO
    TITLE "Step1_Track13_32"
    INDEX 01 00:25:47
  TRACK 33 AUDIO
    TITLE "Step1_Track13_33"
    INDEX 01 00:26:27
  TRACK 34 AUDIO
    TITLE "Step1_Track13_34"
    INDEX 01 00:26:51
  TRACK 35 AUDIO
    TITLE "Step1_Track13_35"
    INDEX 01 00:28:56
  TRACK 36 AUDIO
    TITLE "Step1_Track13_36"
    INDEX 01 00:28:71
  TRACK 37 AUDIO
    TITLE "Step1_Track13_37"
    INDEX 01 00:30:04
  TRACK 38 AUDIO
    TITLE "Step1_Track13_38"
    INDEX 01 00:30:13
  TRACK 39 AUDIO
    TITLE "Step1_Track13_39"
    INDEX 01 00:32:18
  TRACK 40 AUDIO
    TITLE "Step1_Track13_40"
    INDEX 01 00:32:40
  TRACK 41 AUDIO
    TITLE "Step1_Track13_41"
    INDEX 01 00:33:37
  TRACK 42 AUDIO
    TITLE "Step1_Track13_42"
    INDEX 01 00:33:53
  TRACK 43 AUDIO
    TITLE "Step1_Track13_43"
    INDEX 01 00:35:26
